<?xml version="1.0" standalone="no"?>
<!DOCTYPE svg PUBLIC "-//W3C//DTD SVG 20010904//EN"
 "http://www.w3.org/TR/2001/REC-SVG-20010904/DTD/svg10.dtd">
<svg version="1.0" xmlns="http://www.w3.org/2000/svg"
 width="512.000000pt" height="512.000000pt" viewBox="0 0 512.000000 512.000000"
 preserveAspectRatio="xMidYMid meet">
<metadata>
Created by potrace 1.14, written by Peter Selinger 2001-2017
</metadata>
<g transform="translate(0.000000,512.000000) scale(0.100000,-0.100000)"
fill="#000000" stroke="none">
<path d="M2340 5109 c-81 -7 -170 -18 -204 -25 -12 -2 -37 -7 -56 -10 -19 -3
-43 -7 -52 -10 -9 -3 -25 -6 -35 -8 -159 -32 -370 -106 -553 -194 -415 -200
-723 -470 -1027 -898 -49 -67 -141 -241 -217 -404 -59 -130 -140 -408 -166
-575 -6 -38 -14 -81 -17 -95 -10 -40 -12 -580 -3 -630 5 -25 11 -65 15 -90 6
-46 22 -134 32 -180 4 -14 7 -29 8 -35 9 -38 50 -175 71 -236 128 -367 328
-685 609 -964 127 -127 163 -159 269 -238 28 -21 58 -43 67 -50 41 -32 79 -57
85 -57 4 0 15 -6 23 -14 32 -27 291 -163 371 -195 19 -7 49 -19 65 -26 65 -28
223 -77 319 -100 212 -49 352 -66 571 -68 169 -2 332 6 390 18 19 4 77 14 120
20 105 15 453 120 503 151 12 8 22 12 22 9 0 -4 12 0 28 9 15 8 68 34 117 59
205 102 381 220 545 366 81 73 106 97 209 206 178 188 366 487 474 755 51 127
121 349 113 357 -3 3 -1 14 4 24 6 9 13 35 16 56 3 21 7 40 9 43 2 3 7 33 10
65 4 33 9 63 11 66 17 30 26 468 11 609 -34 336 -155 717 -314 988 -24 41 -43
75 -43 78 0 9 -139 207 -194 274 -205 253 -466 476 -741 630 -48 27 -139 74
-145 75 -3 0 -14 6 -25 12 -56 31 -325 132 -395 148 -8 2 -53 13 -100 24 -108
25 -120 27 -260 47 -122 17 -413 24 -540 13z"/>
</g>
</svg>
